<mxfile host="app.diagrams.net" modified="2023-12-13T01:10:52.138Z" agent="Mozilla/5.0 (Windows NT 10.0; Win64; x64) AppleWebKit/537.36 (KHTML, like Gecko) Chrome/119.0.0.0 Safari/537.36" etag="fjYsjx207DUex55IQOX8" version="22.1.8" type="github">
  <diagram name="Page-1" id="U44AKlqPYRK6XK5reMsL">
    <mxGraphModel dx="862" dy="388" grid="1" gridSize="10" guides="1" tooltips="1" connect="1" arrows="1" fold="1" page="1" pageScale="1" pageWidth="1169" pageHeight="827" math="0" shadow="0">
      <root>
        <mxCell id="0" />
        <mxCell id="1" parent="0" />
        <mxCell id="hbKF5pfbyNxAoD32uOXb-1" value="&amp;lt;&amp;lt;entity&amp;gt;&amp;gt;&lt;br&gt;Movies" style="swimlane;whiteSpace=wrap;html=1;startSize=40;" vertex="1" parent="1">
          <mxGeometry x="550" y="250" width="200" height="50" as="geometry" />
        </mxCell>
        <mxCell id="hbKF5pfbyNxAoD32uOXb-2" value="&amp;lt;&amp;lt;entity&amp;gt;&amp;gt;&lt;br&gt;User" style="swimlane;whiteSpace=wrap;html=1;startSize=40;" vertex="1" parent="1">
          <mxGeometry x="420" y="340" width="200" height="50" as="geometry" />
        </mxCell>
        <mxCell id="hbKF5pfbyNxAoD32uOXb-3" value="&amp;lt;&amp;lt;entity&amp;gt;&amp;gt;&lt;br&gt;Reviews" style="swimlane;whiteSpace=wrap;html=1;startSize=40;" vertex="1" parent="1">
          <mxGeometry x="760" y="364" width="200" height="50" as="geometry" />
        </mxCell>
        <mxCell id="hbKF5pfbyNxAoD32uOXb-4" value="&amp;lt;&amp;lt;entity&amp;gt;&amp;gt;&lt;br&gt;MyList" style="swimlane;whiteSpace=wrap;html=1;startSize=40;" vertex="1" parent="1">
          <mxGeometry x="370" y="430" width="200" height="50" as="geometry" />
        </mxCell>
        <mxCell id="hbKF5pfbyNxAoD32uOXb-5" value="&amp;lt;&amp;lt;entity&amp;gt;&amp;gt;&lt;br&gt;Friends" style="swimlane;whiteSpace=wrap;html=1;startSize=40;" vertex="1" parent="1">
          <mxGeometry x="610" y="460" width="200" height="50" as="geometry" />
        </mxCell>
      </root>
    </mxGraphModel>
  </diagram>
</mxfile>
